<svg width="29" height="29" viewBox="0 0 29 29" fill="none" xmlns="http://www.w3.org/2000/svg">
<path d="M22.9584 26.5833H18.1251C17.8046 26.5833 17.4973 26.456 17.2707 26.2294C17.0441 26.0028 16.9168 25.6955 16.9167 25.375V18.125H12.0834V25.375C12.0834 25.6955 11.9561 26.0028 11.7295 26.2294C11.5029 26.456 11.1955 26.5833 10.8751 26.5833H6.04175C5.0807 26.5822 4.1593 26.2 3.47972 25.5203C2.80014 24.8408 2.41787 23.9194 2.41677 22.9583V13.2113C2.41444 12.4748 2.58151 11.7477 2.90508 11.0861C3.22865 10.4245 3.70004 9.84629 4.2828 9.396L12.2748 3.18025C12.9109 2.68497 13.6941 2.41605 14.5003 2.41605C15.3065 2.41605 16.0896 2.68497 16.7258 3.18025L24.7178 9.39628C25.3005 9.84651 25.7719 10.4248 26.0955 11.0863C26.4191 11.7479 26.5862 12.475 26.5838 13.2114V22.9583C26.5827 23.9194 26.2004 24.8409 25.5207 25.5205C24.8411 26.2001 23.9196 26.5823 22.9584 26.5833ZM19.3334 24.1666H22.9584C23.2787 24.1662 23.5859 24.0388 23.8124 23.8123C24.0389 23.5858 24.1664 23.2787 24.1667 22.9583V13.2113C24.1679 12.8431 24.0845 12.4796 23.9227 12.1488C23.761 11.818 23.5254 11.5289 23.234 11.3038L15.2421 5.08779C15.03 4.92264 14.7689 4.83297 14.5001 4.83297C14.2313 4.83297 13.9702 4.92264 13.7581 5.08779L5.76608 11.3037C5.47473 11.5287 5.23904 11.8179 5.07727 12.1486C4.9155 12.4794 4.83198 12.8429 4.83317 13.2111V22.9583C4.83355 23.2787 4.96097 23.5858 5.1875 23.8123C5.41402 24.0388 5.72116 24.1662 6.04147 24.1666H9.66647V18.125C9.6672 17.4843 9.92209 16.87 10.3752 16.4169C10.8282 15.9639 11.4424 15.709 12.0832 15.7083H16.9165C17.5572 15.709 18.1716 15.9638 18.6247 16.4169C19.0778 16.87 19.3326 17.4842 19.3334 18.125V24.1666Z" fill="white"/>
</svg>
