<svg width="29" height="29" viewBox="0 0 29 29" fill="none" xmlns="http://www.w3.org/2000/svg">
<path d="M28.7944 4.3935C28.7044 4.27652 28.5888 4.18172 28.4564 4.11637C28.324 4.05102 28.1785 4.01685 28.0308 4.0165H5.92514L4.77974 0.657333C4.71516 0.466115 4.59236 0.299908 4.42855 0.182023C4.26473 0.0641382 4.06814 0.000488134 3.86632 0H0.966581C0.710228 0 0.464374 0.101845 0.283105 0.28313C0.101836 0.464415 0 0.710291 0 0.966667C0 1.22304 0.101836 1.46892 0.283105 1.6502C0.464374 1.83149 0.710228 1.93333 0.966581 1.93333H3.17522L9.53049 20.6142C9.59589 20.8045 9.71904 20.9696 9.88278 21.0866C10.0465 21.2036 10.2427 21.2665 10.4439 21.2667H24.1645C24.4209 21.2667 24.6667 21.1648 24.848 20.9835C25.0293 20.8022 25.1311 20.5564 25.1311 20.3C25.1311 20.0436 25.0293 19.7977 24.848 19.6165C24.6667 19.4352 24.4209 19.3333 24.1645 19.3333H11.1157L10.4101 17.2502H25.1311C25.3444 17.2511 25.552 17.1814 25.7216 17.0521C25.8912 16.9227 26.0132 16.7408 26.0687 16.5348L28.9684 5.2345C29.0062 5.09039 29.0101 4.9395 28.98 4.79362C28.9498 4.64773 28.8863 4.51079 28.7944 4.3935ZM24.382 15.3168H9.77213L6.58242 5.94983H26.784L24.382 15.3168Z" fill="white"/>
<path d="M13.4399 23.2579C10.286 23.3559 10.286 27.9309 13.4399 28.0333C16.5938 27.9398 16.5938 23.3559 13.4399 23.2579ZM13.4399 26.2515C13.2792 26.2515 13.1251 26.1876 13.0115 26.074C12.8979 25.9604 12.8341 25.8063 12.8341 25.6456C12.8341 25.4849 12.8979 25.3308 13.0115 25.2172C13.1251 25.1036 13.2792 25.0398 13.4399 25.0398C13.6006 25.0398 13.7547 25.1036 13.8683 25.2172C13.9819 25.3308 14.0457 25.4849 14.0457 25.6456C14.0457 25.8063 13.9819 25.9604 13.8683 26.074C13.7547 26.1876 13.6006 26.2515 13.4399 26.2515Z" fill="white"/>
<path d="M21.1953 23.2579C18.0414 23.3559 18.0414 27.9309 21.1953 28.0333C24.3492 27.9398 24.3492 23.3559 21.1953 23.2579ZM21.1953 26.2515C21.0346 26.2515 20.8805 26.1876 20.7669 26.074C20.6533 25.9604 20.5894 25.8063 20.5894 25.6456C20.5894 25.4849 20.6533 25.3308 20.7669 25.2172C20.8805 25.1036 21.0346 25.0398 21.1953 25.0398C21.3559 25.0398 21.51 25.1036 21.6237 25.2172C21.7373 25.3308 21.8011 25.4849 21.8011 25.6456C21.8011 25.8063 21.7373 25.9604 21.6237 26.074C21.51 26.1876 21.3559 26.2515 21.1953 26.2515Z" fill="white"/>
</svg>
